<?xml version="1.0" standalone="no"?><!DOCTYPE svg PUBLIC "-//W3C//DTD SVG 1.1//EN" "http://www.w3.org/Graphics/SVG/1.1/DTD/svg11.dtd"><svg t="1556005344134" class="icon" style="" viewBox="0 0 1024 1024" version="1.1" xmlns="http://www.w3.org/2000/svg" p-id="8757" xmlns:xlink="http://www.w3.org/1999/xlink" width="200" height="200"><defs><style type="text/css"></style></defs><path d="M550.55111143 37.40266667l365.71022158 203.09511079a80.67377746 80.67377746 0 0 1 41.584 70.32888921v401.93777746a80.63288921 80.63288921 0 0 1-41.584 70.24711174l-365.71022158 203.136a81.77777746 81.77777746 0 0 1-79.36533333 1e-8l-365.75111176-203.136A80.38755588 80.38755588 0 0 1 63.93244476 712.76444413V310.82666667a80.42844412 80.42844412 0 0 1 41.50222158-70.32888921L471.18577809 37.40266667a81.57333333 81.57333333 0 0 1 79.36533334 0z m0 0" fill="#5BC3E6" p-id="8758"></path><path d="M514.93688889 100.78044413a8.58666667 8.58666667 0 0 0-8.096 0L141.17155555 303.91644412a7.728 7.728 0 0 0-4.12977745 6.86933334v401.93777842c0 2.73955588 1.55377746 5.43822254 4.12977745 6.82844412l365.62844413 203.09511079a8.17777746 8.17777746 0 0 0 8.096 0l365.62844508-203.09511079a7.728 7.728 0 0 0 4.12977746-6.82844412v-401.93777842a7.64622254 7.64622254 0 0 0-4.12977746-6.86933333l-365.58755587-203.136z m35.61422254-63.37777746l365.71022158 203.09511079a80.67377746 80.67377746 0 0 1 41.584 70.32888921v401.93777746a80.63288921 80.63288921 0 0 1-41.584 70.24711175l-365.71022158 203.136a81.77777746 81.77777746 0 0 1-79.36533333 0l-365.75111176-203.136A80.38755588 80.38755588 0 0 1 63.93244476 712.76444413V310.82666667a80.42844412 80.42844412 0 0 1 41.50222158-70.32888921L471.18577809 37.40266667a81.57333333 81.57333333 0 0 1 79.36533334 0z m0 0" fill="#59C2E1" p-id="8759"></path><path d="M514.93688889 100.78044413a8.58666667 8.58666667 0 0 0-8.096 0L141.17155555 303.91644412a7.728 7.728 0 0 0-4.12977745 6.86933334v401.93777842c0 2.73955588 1.55377746 5.43822254 4.12977745 6.82844412l365.62844413 203.09511079a8.17777746 8.17777746 0 0 0 8.096 0l365.62844508-203.09511079a7.728 7.728 0 0 0 4.12977746-6.82844412v-401.93777842a7.64622254 7.64622254 0 0 0-4.12977746-6.86933333l-365.58755587-203.136z" fill="#1A6F9D" p-id="8760"></path><path d="M304.52266635 433.73866667h90.11911175v301.47377745H304.52266635z" fill="#FFFFFF" p-id="8761"></path><path d="M348.72355555 336.34133333m-61.66044412 0a61.66044413 61.66044413 0 1 0 123.32088825 0 61.66044413 61.66044413 0 1 0-123.32088825 0Z" fill="#FFFFFF" p-id="8762"></path><path d="M447.38844476 433.73866667h92.57244413v35.12355587s43.58755587-35.12355588 98.82844412-35.12355587 95.92533333 48.576 95.92533334 89.21955587v212.25422159h-87.216v-177.376s-2.45333333-55.24088921-56.42666667-55.24088825c-54.05511079 0-51.11111079 55.24088921-51.11111079 55.24088825v177.376h-92.57244413v-301.47377746z" fill="#FFFFFF" p-id="8763"></path></svg>